<svg fill="none" height="19" viewBox="0 0 95 19" width="95" xmlns="http://www.w3.org/2000/svg"><g fill="#273339"><path d="m1.53191 15.3898c.35505-.7089.79887 0 1.59774-.0886 1.33146-.0886 1.9528-.7975 1.9528-2.1265 0-5.58214-1.33145-5.67075 0-11.07563.26629-1.417673 2.48538-1.506278 2.84044-.17721 1.42021 5.40489-.08877 5.58209-.08877 11.16414 0 1.4177-.26629 2.5696-.9764 3.2784-.71011.7975-1.86403 1.0633-3.37301 1.1519-.88764.0886-.9764.6202-1.77528.2658-1.06516-.5316-.798869-1.4177-.17752-2.3923z"/><path d="m16.0002 16.5416c-1.1539-.6202-2.0416-1.4177-2.6629-2.6581-.6214-1.1519-.8877-2.5696-.8877-4.16445 0-1.59489.2663-3.01256.7989-4.25303.6214-1.15186 1.4202-2.21511 2.4854-2.83534 1.0652-.62024 2.4854-.88605 3.9944-.88605 1.5089 0 2.9292.26581 3.9943.88605 1.0652.62023 1.9528 1.68348 2.4854 2.83534.6214 1.15186.7989 2.56954.7989 4.25303 0 1.59485-.1775 3.01255-.7989 4.25305-.6213 1.2404-1.4202 2.1265-2.5741 2.7467-1.0652.6202-2.3967.9747-3.9056.9747-1.3315-.0886-2.5742-.5317-3.7281-1.1519zm7.2786-2.6581c.7989-.9747 1.0652-2.481 1.0652-4.34166 0-1.8607-.4438-3.27837-1.2427-4.16442-.7989-.97465-1.9528-1.41768-3.373-1.41768-1.4203 0-2.4854.53163-3.2843 1.50628s-1.2427 2.30372-1.2427 4.16442c0 1.86066.4438 3.10116 1.2427 4.07586.7989.9746 1.7753 1.5062 3.2843 1.5062 1.5089.0886 2.7516-.2658 3.5505-1.329z"/><path d="m31.8001 17.3391c-1.4202-7.62001-1.509-7.88582-.1775-15.50582.2663-1.417679 2.7517-1.417679 3.018 0 1.4202 7.62 1.3314 7.7972.1775 15.50582-.2663 1.5949-2.7517 1.3291-3.018 0z"/><path d="m50.1744 1.74449c.355-1.329067 2.4853-1.329067 2.6629-.0886 1.3314 7.62.8876 7.79721-.0888 15.50581-.1775 1.0633-1.4202.886-2.1303.0886-4.7933-4.8733-1.509-10.80976-8.255-10.80976-5.4146 0 1.3314 5.49346.0887 10.72116-.2663 1.2405-2.3078 1.3291-2.5741 0-1.3315-7.62-1.0652-7.79721-.0888-15.41721.1775-1.063253 1.4202-.886044 2.1303-.0886 4.7933 4.87325 2.7517 6.82255 8.2551 10.80981 4.3494 3.2783-1.2427-5.49353 0-10.72121z"/><path d="m67.3058 15.5669c-1.0652-1.0633-1.9528-2.5696-1.9528-4.6961 0-4.60741-1.0652-4.78462.1775-9.21486.3551-1.329064 2.3079-1.417669 2.6629-.0886 1.3315 4.51884.0888 4.69605.1776 9.39206 0 1.3291.1775 2.3038.7988 3.0126.6214.7088 1.5978 1.0632 2.7517 1.0632 1.2427 0 2.2191-.3544 2.8404-1.0632.6214-.7088.8877-1.7721.8877-3.1012 0-4.69602-1.509-4.87323-.1776-9.39206.3551-1.329074 2.4854-1.329074 2.8405 0 1.3314 4.43023 0 4.60744.0887 9.21486 0 2.1265-.6213 3.6328-1.6865 4.7847-1.0651 1.1518-2.6629 1.6835-4.7932 1.6835-2.0416.0886-3.5506-.5317-4.6157-1.5949z"/><path d="m85.4133 16.8073c-1.0652-.3544-2.0416-.886-2.7517-1.5063.0888-1.1518.1775-1.4176.9764-2.1265.7101.5317 1.5978 1.0633 2.4854 1.3291.7989.2658 1.7753.3544 2.6629.3544 1.0652 0 1.864-.2658 2.3966-.7088.5326-.3544.7989-.7975.7989-1.5063 0-.6202-.1775-.9746-.7101-1.3291-.5326-.2658-1.4202-.7088-2.6629-.9746-1.3315-.2658-2.3079-.53164-3.1067-.88606-.7989-.35442-1.509-.70884-1.8641-1.32907-.4438-.53163-.5326-1.32907-.5326-2.21512 0-.88604.0888-1.77209.6214-2.48092.5326-.70884 1.3314-1.15187 2.2191-1.50628.8876-.44303 1.864-.62024 3.1067-.62024 1.0652 0 2.1303.08861 3.1067.44303s1.8641.70883 2.5742 1.24046c-.0888 1.15186.0887 1.77209-.9764 2.21512-1.4202-1.06326-2.9292-1.59489-4.6157-1.59489-.9764 0-1.7753.08861-2.3079.53163-.5326.44303-.9764.97465-.8876 1.68349 0 .62023.2663 1.15186.7988 1.50628.5326.35442 1.4203.53163 2.663.79744 1.3314.26581 2.3966.53163 3.1954.88605.7989.35442 1.509.79744 1.9528 1.41768.4439.5316.4439 1.3291.4439 2.2151 0 .8861-.1776 1.6835-.7101 2.3923-.4439.7089-1.154 1.2405-2.0416 1.5949s-1.9528.5316-3.2843.5316c-1.4202-.0886-2.5741 0-3.5505-.3544z"/></g></svg>