<svg xmlns="http://www.w3.org/2000/svg" fill="none" height="143" viewBox="0 0 143 143" width="143"><path d="m126.1 114-13.9-3.9c-2.5-.7-4.9 1.5-4.3 4.1l3.1 14.1c.7 3.2-3 5.5-5.5 3.5l-11.4-8.9c-2.1-1.6-5.1-.5-5.5 2.1l-2.6 14.3c-.6 3.2-4.8 3.9-6.4 1.1l-7.1-12.6c-1.3-2.3-4.5-2.4-5.9-.2l-7.8 12.2c-1.7 2.7-6 1.8-6.4-1.4l-1.7-14.4c-.3-2.6-3.3-3.9-5.4-2.4l-11.8 8.3c-2.7 1.9-6.2-.6-5.3-3.8l3.9-13.9c.7-2.5-1.5-4.9-4.1-4.3l-14.2 3.1c-3.2.7-5.49998-3-3.5-5.5l8.9-11.4c1.6-2.1.5-5.1-2.1-5.5l-14.19998-2.6c-3.200004-.6-3.900005-4.8-1.1-6.4l12.59998-7.1c2.3-1.3 2.4-4.5.2-5.9l-12.29998-7.8c-2.700005-1.7-1.800005-6 1.4-6.4l14.39998-1.7c2.6-.3 3.9-3.3 2.4-5.4l-8.3-11.8c-1.9-2.7.6-6.2 3.8-5.3l13.9 3.8c2.5.7 4.9-1.5 4.3-4.1l-3.1-14.1c-.7-3.2 3-5.49998 5.5-3.5l11.4 8.9c2.1 1.6 5.1.5 5.5-2.1l2.5-14.19998c.6-3.200004 4.8-3.900005 6.4-1.1l7.1 12.59998c1.3 2.3 4.5 2.4 5.9.2l7.8-12.19998c1.7-2.700004 6-1.800005 6.4 1.4l1.7 14.39998c.3 2.6 3.3 3.9 5.4 2.4l11.8-8.3c2.7-1.9 6.2.6 5.3 3.8l-3.9 13.9c-.7 2.5 1.5 4.9 4.1 4.3l14.1-3.1c3.2-.7 5.5 3 3.5 5.5l-8.7 11.3c-1.6 2.1-.5 5.1 2.1 5.5l14.2 2.5c3.2.6 3.9 4.8 1.1 6.4l-12.6 7.1c-2.3 1.3-2.4 4.5-.2 5.9l12.2 7.8c2.7 1.7 1.8 6-1.4 6.4l-14.3 1.8c-2.6.3-3.9 3.3-2.4 5.4l8.3 11.8c1.8 2.8-.7 6.3-3.8 5.4z" fill="#f0eacf"/></svg>