<svg xmlns="http://www.w3.org/2000/svg" xmlns:xlink="http://www.w3.org/1999/xlink" fill="none" height="74" viewBox="0 0 107 74" width="107"><clipPath id="a"><path d="m0 0h107v74h-107z"/></clipPath><g clip-path="url(#a)"><path d="m97.8002 4.99259c3.8668-1.09427 7.8668 1.70979 8.5328 6.01851 4.134 27.8355-9.9995 54.3031-33.9995 61.2107s-49.6-7.8651-60.3334-33.7856c-1.6666-4.0351.3334-8.6174 4.1334-9.7116z" fill="#00e97b"/><path d="m64.6667 24.6895c-1.8 1.0258-5.6 2.8724-7.7333 2.2569-3.2667-.9575-3.1334-6.1553-3.5334-8.8226-.8-5.6081-1.4-11.21622-1.8-16.82435-.1333-1.778188-2.8-1.709796-2.6666.06839.3333 4.37708.7333 8.75416 1.3333 13.13126.4667 3.7615.6667 7.9334 1.8667 11.4898 2.0666 6.2237 9.8666 3.3512 14 1.0943 1.4-.8891 0-3.2144-1.4667-2.3937z" fill="#273339"/><path d="m92.5335 33.4436c-1.0667-2.1201-3.0667-3.3512-5.2-3.5563-.2-.1368-.4-.2052-.6667-.2052-4.8667-.2736-10.4667 1.4362-9.5333 7.5915.6666 4.7874 5.4 7.865 10 6.976 4.5333-.8891 7.6-6.3605 5.4-10.806zm-7.2 8.2071c-2.6-.0684-5.1334-1.8466-5.6-4.5823-.4-2.2569.5333-3.488 2-4.1035.3333.8207 1.4 1.3678 2.2666.5471 2.1334-2.0517 5.8-.8207 6.4667 2.0518.6667 3.3512-2 6.1553-5.1333 6.0869z" fill="#273339"/><path d="m24 64.6303c-8.5333-7.3863-15.3333-16.414-20.1333-26.7412-1.2-2.5989-4.799996-.2735-3.666663 2.257 4.933333 10.6007 11.999963 20.0388 20.799963 27.6303 2.1334 1.8466 5.0667-1.2995 3-3.1461z" fill="#00e97b"/></g></svg>