<svg xmlns="http://www.w3.org/2000/svg" xmlns:xlink="http://www.w3.org/1999/xlink" fill="none" height="80" viewBox="0 0 132 80" width="132"><clipPath id="a"><path d="m0 0h132v80h-132z"/></clipPath><g clip-path="url(#a)"><path d="m125.582 20.6957c4.77.9565 7.545 6.6956 5.898 11.6521-10.841 31.9131-41.0227 52.7826-70.9439 46.5218-29.9211-6.2609-50.3889-37.3913-47.7871-70.95655.4337-5.21739 6.071-8.782605 10.841-7.739126 25.498 5.304346 25.3246 5.826086 50.8226 11.043476 25.5848 5.1304 25.7584 4.2609 51.1694 9.4783z" fill="#eeb27b"/><path d="m12.4021 42.6086c-5.2037-12.6956-7.54536-26.0869-7.11172-39.82608.08673-3.391304-5.116952-2.956522-5.2036802.34783-.5203678 14.17395 1.9947402 28.17395 7.3718802 41.21735 1.21419 3.1305 6.24442 1.4783 4.94352-1.7391z" fill="#eeb27b"/><g fill="#273339"><path d="m99.9974 42.174c.4336-.9565.1736-2.0869-1.0408-2.2609-19.7739-2.6956-39.3745-5.913-58.975-9.4782-.4336-.3478-.954-.3478-1.4744-.1739-1.4743.1739-2.0814 2.1739-1.1274 3.0434 2.9487 14.6957 13.9632 27.3044 29.2273 29.6522 14.3969 2.1739 28.36-5.6522 33.4769-19.3913.174-.6087.087-1.0435-.0866-1.3913zm-35.2116 16.7826c-12.2286-2.9565-20.6412-12.9565-23.6767-24.8695 18.3863 3.3913 36.8594 6.3478 55.4192 8.9565-5.0303 12.6087-18.7333 19.0435-31.7425 15.913z"/><path d="m86.9881 8.08695c-6.678 7.91305-18.8199 5.56525-21.9421-4.43479-.6939-2.17391-3.9895-1.13043-3.2957 1.04348 3.816 12.34786 19.3403 15.65216 27.7529 5.73916 1.4744-1.73916-1.1274-4.08698-2.5151-2.34785z"/><path d="m111.099 22.6088c-2.169-.5217-2.949 2.8696-.781 3.3913 2.168.4348 2.949-2.9565.781-3.3913z"/><path d="m107.282 28.8696c-2.168-.5218-2.948 2.8695-.78 3.3913 2.255.5217 2.949-2.8696.78-3.3913z"/><path d="m113.18 29.0434c-2.168-.5217-2.949 2.8696-.781 3.3913 2.255.4348 3.036-2.9565.781-3.3913z"/></g></g></svg>