<svg xmlns="http://www.w3.org/2000/svg" xmlns:xlink="http://www.w3.org/1999/xlink" fill="none" height="95" viewBox="0 0 126 95" width="126"><clipPath id="a"><path d="m0 0h126v95h-126z"/></clipPath><g clip-path="url(#a)"><path d="m118.246 28.0236c4.616-.0934 8.216 4.5772 7.754 9.528-3.415 31.6667-26.7692 57.0748-55.2923 57.4484s-53.5385-24.1003-57.9693-55.5801c-.6461-4.8575 3.7847-9.3412 8.4-9.4347 48.4616-1.1209 48.4616-1.2143 97.1076-1.9616z" fill="#f0eacf"/><path d="m19.2923 71.4602c-7.2923-10.6489-12.18465-22.5123-14.49234-35.2163-.55385-3.176-5.261543-1.6814-4.7076972 1.4012 2.3999972 13.0777 7.5692272 25.5015 15.0461372 36.4307 1.7539 2.6155 6 0 4.1539-2.6156z" fill="#f0eacf"/><g fill="#273339"><path d="m73.2 31.3864c-3.0462-.9341-5.4462-2.6155-4.9846-6.0718.3692-2.7089.8307-5.3245 1.2923-7.94l2.4-15.03934c.3692-2.33529953-3.2308-3.176007-3.6-.7473-1.2923 8.03344-3.6 16.53394-3.8769 24.66074-.1847 5.5113 3.323 7.5664 8.0307 8.9676 2.2154.467 2.9539-3.176.7385-3.8299z"/><path d="m103.385 15.5999c-1.293-.5604-2.585-.9341-3.8773-1.1209-.6462-.3737-1.3846-.4671-1.9385-.0934-3.8769 0-7.6615 1.588-10.4308 4.6706-1.5692 1.7748 1.2 4.2969 2.7693 2.5221 1.7538-2.0551 4.1538-3.176 6.7384-3.4563-.923 10.0885-2.4923 20.177-4.8923 29.9853-2.4923 10.2753-6.923 22.7925-19.9384 19.8968-10.1539-2.2419-16.0616-12.6107-20.4-21.298-4.9846-10.1819-8.4-21.0177-10.1539-32.2271-.3692-2.3353-4.0615-2.1485-3.6923.1868 2.0308 12.6106 5.8154 24.7542 11.8154 36.057 4.8923 9.4346 11.9077 19.4297 23.0769 21.1111 10.2462 1.4946 17.2616-5.1376 20.4923-14.3854 4.3385-12.3304 6.2769-25.9685 7.3842-39.0462.462.0934.924.2802 1.385.467 2.123 1.121 3.877-2.2418 1.662-3.2694z"/></g></g></svg>