<svg xmlns="http://www.w3.org/2000/svg" xmlns:xlink="http://www.w3.org/1999/xlink" fill="none" height="120" viewBox="0 0 148 120" width="148"><clipPath id="a"><path d="m.107422 17.9893h136v102h-136z" transform="matrix(.99200497 -.1261988 .1261988 .99200497 -2.269369 .157381)"/></clipPath><g clip-path="url(#a)"><path d="m130.424 31.5611c4.939-.7199 9.519 3.6461 9.644 8.9454.859 34.0731-20.449 64.2765-50.9583 68.8905-30.5088 4.615-60.7905-17.7426-69.9855-50.4803-1.4754-5.1276 2.6981-10.4239 7.6368-11.1438 25.9302-3.9402 26.0105-3.3089 52.0192-7.3508 25.8288-4.019 25.7138-4.9208 51.6438-8.861z" fill="#f0eacf"/><path d="m30.8295 91.9765c-9.3542-10.2652-16.259-22.125-20.5785-35.2301-1.05447-3.2566-5.88806-.9922-4.84503 2.1742 4.46683 13.5446 11.71043 25.9112 21.36913 36.4126 2.2342 2.465 6.3787-.9031 4.0544-3.3567z" fill="#f0eacf"/><g fill="#273339"><path d="m88.7313 23.0271c-.9495-1.7121-3.7263-.534-2.7768 1.178 3.4016 5.8905 5.6121 12.4825 6.0225 19.3034.1068 2.2774.2825 5.096-.9166 7.173-2.5438 4.4475-8.0084 1.7519-10.4914-1.2313-4.1085-4.9758-4.2048-12.2033-4.5234-18.3027-.4334-7.0013-.4953-13.9582-.1858-20.8707.1191-1.93967-2.9542-2.37347-2.9833-.44529-.3713 9.30309-.3596 18.74069.6421 28.05239.7034 6.9669 3.2218 15.2608 10.655 17.6143 5.8228 1.9169 10.0669-2.1054 10.8186-7.6996 1.0375-8.3797-2.1472-17.597-6.2609-24.7715z"/><path d="m118.457 71.2066c-2.822-3.49-7.437-3.8193-11.623-3.6534 1.119-2.7083 1.956-5.4724 2.535-8.112.59-2.5494-3.406-3.0491-3.918-.6013-2.85 12.8258-13.6319 30.8763-28.9067 29.4287-2.5889-.2205-3.0971 3.6931-.5982 3.9251 10.187.9951 18.5562-5.1099 24.5569-13.2963 1.179 3.5157 2.988 6.9512 6.649 8.41 4.235 1.6606 8.089-1.1207 10.5-4.4516 2.592-3.3539 3.818-8.092.805-11.6492zm-4.477 10.1003c-1.908 2.2588-4.493 3.5041-6.975 1.2538-1.962-1.7665-2.611-4.7082-3.28-7.0973-.035-.2706-.159-.5296-.362-.6871.078-.1016.157-.2033.145-.2935 2.264.5369 3.933 2.1573 4.76 4.3432.861 2.4564 4.504.8933 3.642-1.5631-.872-2.5466-2.779-4.595-5.033-5.7746 2.633-.1517 5.548-.2475 7.69 1.4961 2.954 2.3734 1.399 5.962-.587 8.3225z"/></g></g></svg>